<svg width="49" height="49" viewBox="0 0 49 49" fill="none" xmlns="http://www.w3.org/2000/svg">
<path d="M24.5 49C38.031 49 49 38.031 49 24.5C49 10.969 38.031 0 24.5 0C10.969 0 0 10.969 0 24.5C0 38.031 10.969 49 24.5 49Z" fill="black"/>
<path d="M20.7771 16.4416C20.7771 17.1498 20.7771 20.308 20.7771 20.308H17.9443V25.0357H20.7771V37.9939H26.5959V25.0262H30.5006C30.5006 25.0262 30.8643 22.758 31.0461 20.2793C30.5389 20.2793 26.6246 20.2793 26.6246 20.2793C26.6246 20.2793 26.6246 17.5326 26.6246 17.0445C26.6246 16.566 27.2562 15.9152 27.8879 15.9152C28.51 15.9152 29.8307 15.9152 31.0557 15.9152C31.0557 15.274 31.0557 13.0441 31.0557 10.9961C29.4191 10.9961 27.5625 10.9961 26.749 10.9961C20.6336 11.0057 20.7771 15.7334 20.7771 16.4416Z" fill="#F9F466"/>
</svg>
