<svg width="49" height="49" viewBox="0 0 49 49" fill="none" xmlns="http://www.w3.org/2000/svg">
<path d="M45.7135 12.5081C43.5226 8.66019 40.5509 5.6138 36.7974 3.36823C33.0434 1.12255 28.9452 0 24.4998 0C20.0549 0 15.9553 1.1229 12.2021 3.36823C8.44835 5.61368 5.4767 8.66019 3.28584 12.5081C1.09532 16.3559 0 20.5577 0 25.1134C0 30.5859 1.55756 35.5069 4.67345 39.8776C7.78901 44.2487 11.8139 47.2733 16.7476 48.9518C17.3219 49.0611 17.7471 48.9843 18.0235 48.7232C18.3001 48.4619 18.4382 48.1345 18.4382 47.7426C18.4382 47.6772 18.4327 47.0888 18.4221 45.9768C18.4111 44.8648 18.406 43.8947 18.406 43.0669L17.6722 43.1971C17.2044 43.2849 16.6142 43.3221 15.9017 43.3116C15.1895 43.3014 14.4502 43.2249 13.6847 43.0826C12.9189 42.9416 12.2066 42.6146 11.5473 42.1023C10.8883 41.59 10.4204 40.9194 10.1439 40.0916L9.82489 39.3391C9.61227 38.8381 9.27752 38.2816 8.82019 37.6716C8.36287 37.061 7.90041 36.647 7.43258 36.4291L7.20923 36.2652C7.0604 36.1563 6.9223 36.0249 6.79459 35.8725C6.66699 35.72 6.57146 35.5674 6.50766 35.4147C6.44375 35.2618 6.49671 35.1363 6.6671 35.038C6.83749 34.9396 7.14543 34.8918 7.59225 34.8918L8.23002 34.9895C8.65539 35.0769 9.18154 35.3379 9.80914 35.7742C10.4364 36.2101 10.9521 36.7768 11.3562 37.4741C11.8456 38.3682 12.4352 39.0494 13.1267 39.5182C13.8177 39.987 14.5143 40.221 15.216 40.221C15.9177 40.221 16.5237 40.1665 17.0343 40.058C17.5444 39.949 18.023 39.7851 18.4698 39.5672C18.6612 38.106 19.1823 36.9834 20.0327 36.1988C18.8206 36.0682 17.7309 35.8715 16.7629 35.6101C15.7956 35.3482 14.7959 34.9233 13.7646 34.3341C12.7327 33.7458 11.8768 33.0152 11.1964 32.1436C10.516 31.2715 9.95752 30.1266 9.52187 28.7099C9.08601 27.2927 8.86801 25.6578 8.86801 23.8049C8.86801 21.1666 9.70825 18.9215 11.3884 17.0683C10.6013 15.0848 10.6756 12.8612 11.6115 10.3978C12.2283 10.2014 13.1429 10.3488 14.355 10.8391C15.5673 11.3296 16.4549 11.7499 17.0187 12.0983C17.5825 12.4466 18.0342 12.7417 18.3746 12.9811C20.3528 12.4145 22.3943 12.1312 24.4996 12.1312C26.6048 12.1312 28.6467 12.4145 30.6251 12.9811L31.8373 12.1967C32.6662 11.6732 33.6451 11.1936 34.7716 10.7575C35.8988 10.3217 36.7607 10.2017 37.3564 10.3981C38.3131 12.8617 38.3983 15.0851 37.6111 17.0686C39.2911 18.9218 40.1316 21.1675 40.1316 23.8052C40.1316 25.6581 39.9129 27.2982 39.4777 28.7263C39.0419 30.1547 38.4787 31.2984 37.7877 32.1599C37.096 33.0213 36.2345 33.7462 35.2032 34.3345C34.1717 34.9232 33.1717 35.3481 32.2043 35.6099C31.2365 35.8718 30.1468 36.0685 28.9347 36.1993C30.0402 37.18 30.593 38.7279 30.593 40.8424V47.7417C30.593 48.1336 30.726 48.4608 30.9921 48.7223C31.2579 48.9833 31.6777 49.0602 32.252 48.9508C37.1865 47.2725 41.2113 44.2478 44.3268 39.8767C47.4419 35.5059 49 30.585 49 25.1125C48.9989 20.5573 47.903 16.3559 45.7135 12.5081Z" fill="black"/>
</svg>
