<svg width="40" height="35" viewBox="0 0 40 35" fill="none" xmlns="http://www.w3.org/2000/svg">
<path d="M4.5908 6.00522H20.8301V1.03579C20.8301 0.47938 21.27 0.0280533 21.8128 0.0280533H35.4093C35.9522 0.0280533 36.3925 0.47938 36.3925 1.03579V32.957H38.6829C39.9755 32.957 39.9755 34.9719 38.6829 34.9719C26.2278 34.9719 13.7723 34.9719 1.31723 34.9719C0.0246262 34.9719 0.0246262 32.957 1.31723 32.957H3.60812V7.01247C3.60812 6.45655 4.04796 6.00522 4.5908 6.00522ZM14.6269 32.957V28.9943H11.7767V32.957H14.6269ZM9.81085 32.957V27.9866C9.81085 27.4306 10.2507 26.9793 10.7935 26.9793H15.6101C16.1529 26.9793 16.5928 27.4306 16.5928 27.9866V32.957H20.8301V8.02021H5.57396V32.957H9.81085ZM25.6623 4.2096H31.5598C32.1027 4.2096 32.543 4.66044 32.543 5.21685V23.3522C32.543 23.9086 32.1027 24.3595 31.5598 24.3595H25.6623C25.1195 24.3595 24.6792 23.9086 24.6792 23.3522V5.21685C24.6792 4.66044 25.1195 4.2096 25.6623 4.2096ZM30.5772 6.22411H26.645V22.3445H30.5772V6.22411ZM8.50832 16.4506H11.7521C12.295 16.4506 12.7348 16.9019 12.7348 17.4584V20.7828C12.7348 21.3392 12.295 21.7905 11.7521 21.7905H8.50832C7.96548 21.7905 7.52516 21.3392 7.52516 20.7828V17.4584C7.52516 16.9019 7.96548 16.4506 8.50832 16.4506ZM10.769 18.4656H9.491V19.7755H10.769V18.4656ZM14.652 16.4506H17.8953C18.4382 16.4506 18.8785 16.9019 18.8785 17.4584V20.7828C18.8785 21.3392 18.4382 21.7905 17.8953 21.7905H14.652C14.1091 21.7905 13.6688 21.3392 13.6688 20.7828V17.4584C13.6688 16.9019 14.1091 16.4506 14.652 16.4506ZM16.9126 18.4656H15.6347V19.7755H16.9126V18.4656ZM8.50832 10.0028H11.7521C12.295 10.0028 12.7348 10.4536 12.7348 11.01V14.3349C12.7348 14.8913 12.295 15.3422 11.7521 15.3422H8.50832C7.96548 15.3422 7.52516 14.8913 7.52516 14.3349V11.01C7.52516 10.4536 7.96548 10.0028 8.50832 10.0028ZM10.769 12.0177H9.491V13.3272H10.769V12.0177ZM14.652 10.0028H17.8953C18.4382 10.0028 18.8785 10.4536 18.8785 11.01V14.3349C18.8785 14.8913 18.4382 15.3422 17.8953 15.3422H14.652C14.1091 15.3422 13.6688 14.8913 13.6688 14.3349V11.01C13.6688 10.4536 14.1091 10.0028 14.652 10.0028ZM16.9126 12.0177H15.6347V13.3272H16.9126V12.0177ZM22.796 32.957H34.4266V2.04304H22.796V32.957Z" fill="black"/>
</svg>
