<svg width="47" height="46" viewBox="0 0 47 46" fill="none" xmlns="http://www.w3.org/2000/svg">
<path d="M44.6774 17.664L43.0598 7.37538C42.9887 6.92298 42.7546 6.51041 42.3997 6.2123C42.0448 5.91419 41.5926 5.75022 41.125 5.75004C30.4188 5.75004 24.9315 0.605709 24.8845 0.561625C24.5176 0.204644 24.0213 0.00427246 23.5039 0.00427246C22.9865 0.00427246 22.4902 0.204644 22.1233 0.561625C22.0684 0.605709 16.5812 5.75004 5.87497 5.75004C5.4073 5.75022 4.95514 5.91419 4.60026 6.2123C4.24538 6.51041 4.01122 6.92298 3.94014 7.37538L2.32255 17.664C1.59702 22.3378 2.35647 27.1168 4.49806 31.3541C6.63965 35.5914 10.0599 39.0823 14.2958 41.354L22.56 45.7624C22.8477 45.916 23.1702 45.9966 23.498 45.9966C23.8258 45.9966 24.1483 45.916 24.4361 45.7624L32.7002 41.354C36.9368 39.0829 40.3579 35.5922 42.5002 31.3549C44.6425 27.1175 45.4026 22.3382 44.6774 17.664ZM30.8281 37.9807L23.5 41.9003L16.1719 37.9884C12.6405 36.0963 9.78846 33.1878 8.00204 29.6567C6.21561 26.1256 5.58109 22.1425 6.18439 18.2467L7.55522 9.54313C13.273 9.41782 18.8233 7.63042 23.5 4.40838C28.1747 7.63001 33.7229 9.41804 39.4388 9.54504L40.8097 18.2467C41.4135 22.1419 40.7799 26.1245 38.9945 29.6556C37.2092 33.1866 34.3584 36.0955 30.8281 37.9884V37.9807Z" fill="black"/>
<path d="M29.9488 15.895L19.5833 26.0399L17.0512 23.5616C16.8706 23.3786 16.6545 23.2326 16.4155 23.1321C16.1766 23.0317 15.9196 22.9788 15.6596 22.9766C15.3996 22.9744 15.1417 23.0229 14.901 23.1192C14.6604 23.2156 14.4417 23.3579 14.2578 23.5379C14.074 23.7178 13.9286 23.9318 13.8301 24.1674C13.7316 24.4029 13.6821 24.6553 13.6843 24.9098C13.6866 25.1643 13.7406 25.4158 13.8433 25.6497C13.9459 25.8835 14.0951 26.095 14.2821 26.2718L18.1988 30.1051C18.566 30.4645 19.064 30.6663 19.5833 30.6663C20.1026 30.6663 20.6006 30.4645 20.9679 30.1051L32.7179 18.6051C33.0746 18.2436 33.272 17.7595 33.2675 17.2569C33.2631 16.7544 33.0571 16.2737 32.694 15.9183C32.3309 15.5629 31.8398 15.3614 31.3263 15.357C30.8128 15.3526 30.3181 15.5458 29.9488 15.895Z" fill="black"/>
</svg>
