<svg width="43" height="43" viewBox="0 0 43 43" fill="none" xmlns="http://www.w3.org/2000/svg">
<g clip-path="url(#clip0_99_67)">
<path d="M21.5 2.6875C31.8721 2.6875 40.3125 11.1279 40.3125 21.5C40.3125 31.8721 31.8721 40.3125 21.5 40.3125C11.1279 40.3125 2.6875 31.8721 2.6875 21.5C2.6875 11.1279 11.1279 2.6875 21.5 2.6875ZM21.5 0C9.62671 0 0 9.62671 0 21.5C0 33.3733 9.62671 43 21.5 43C33.3733 43 43 33.3733 43 21.5C43 9.62671 33.3733 0 21.5 0ZM33.4862 28.6886L33.3654 28.3211C33.082 27.4761 32.1476 26.5942 31.2868 26.358L28.1086 25.4893C27.2477 25.2557 26.0195 25.5706 25.387 26.2031L24.2375 27.3527C20.0592 26.2215 16.7813 22.9435 15.6527 18.7653L16.8022 17.6157C17.4321 16.9858 17.7471 15.7576 17.5135 14.8941L16.6473 11.7158C16.4137 10.855 15.5266 9.92065 14.6816 9.63721L14.3193 9.51644C13.4716 9.23299 12.2617 9.51904 11.6318 10.1516L9.91016 11.8733C9.60311 12.1777 9.40625 13.0517 9.40625 13.0544C9.34847 18.5186 11.4902 23.7808 15.3534 27.6466C19.2062 31.4994 24.45 33.6385 29.8958 33.5911C29.9247 33.5911 30.825 33.3996 31.132 33.0924L32.8537 31.3708C33.4836 30.7435 33.7669 29.5336 33.4862 28.6886Z" fill="black"/>
</g>
<defs>
<clipPath id="clip0_99_67">
<rect width="43" height="43" fill="white"/>
</clipPath>
</defs>
</svg>
