<svg width="49" height="49" viewBox="0 0 49 49" fill="none" xmlns="http://www.w3.org/2000/svg">
<path d="M48.9761 24.4918C48.9761 27.9268 48.9069 31.3716 48.9958 34.8065C49.144 40.8868 45.3219 45.5852 40.4529 47.6777C38.4974 48.5167 36.4432 48.9609 34.3198 48.9609C27.6731 48.9708 21.0166 49.0596 14.3699 48.9313C9.36264 48.8326 5.24426 46.74 2.29128 42.6141C0.740715 40.4426 0 37.975 0 35.3001C0 28.2229 0 21.1556 0 14.0784C0 8.30414 2.81472 4.26709 7.81208 1.64153C9.98484 0.506419 12.3453 0.0227627 14.8044 0.0128921C21.2536 0.0128921 27.7126 -0.02659 34.1618 0.0326332C39.169 0.0721153 43.3466 1.987 46.428 6.01418C48.1465 8.26466 48.9761 10.8507 48.9761 13.6935C48.9761 17.2863 48.9761 20.8891 48.9761 24.4918ZM3.64432 24.4918C3.64432 28.1143 3.64432 31.7269 3.64432 35.3494C3.64432 36.9682 4.01961 38.4882 4.85909 39.8602C7.06148 43.463 10.3898 45.22 14.518 45.289C21.1449 45.3877 27.7818 45.3285 34.4186 45.3088C36.0481 45.3088 37.6283 44.9732 39.0999 44.2724C43.1096 42.3575 45.3515 39.3075 45.3318 34.7276C45.2923 27.7195 45.3219 20.7114 45.3219 13.7033C45.3219 11.7193 44.7589 9.90317 43.5837 8.30414C41.3121 5.23441 38.1715 3.72421 34.4186 3.68473C27.8015 3.60577 21.1845 3.65512 14.5674 3.66499C13.1551 3.66499 11.7922 3.95124 10.4688 4.44476C6.83433 5.79703 3.45667 9.2221 3.61469 14.2659C3.7332 17.6812 3.64432 21.0865 3.64432 24.4918Z" fill="black"/>
<path d="M24.5423 34.9547C18.1721 34.9547 13.0365 29.8812 13.0266 23.5641C13.0167 17.3457 18.1919 12.2525 24.5225 12.2525C30.8729 12.2426 36.0283 17.3259 36.0382 23.5937C36.0382 29.8516 30.8927 34.9448 24.5423 34.9547ZM24.5423 31.3026C28.8779 31.3026 32.3939 27.838 32.384 23.574C32.3741 19.3494 28.8582 15.8947 24.5423 15.8947C20.2066 15.8947 16.6709 19.3395 16.6709 23.5937C16.6808 27.8578 20.2066 31.3125 24.5423 31.3026Z" fill="black"/>
<path d="M37.3717 8.79785C38.7049 8.79785 39.7913 9.93296 39.7913 11.3247C39.7814 12.7165 38.6852 13.8417 37.3519 13.8318C36.0384 13.822 34.9619 12.6967 34.9619 11.3346C34.952 9.94283 36.0384 8.79785 37.3717 8.79785Z" fill="black"/>
</svg>
