<svg width="47" height="40" viewBox="0 0 47 40" fill="none" xmlns="http://www.w3.org/2000/svg">
<path fill-rule="evenodd" clip-rule="evenodd" d="M46 36.3224C46 37.2451 45.3468 38 44.5484 38C44.5484 38 27.8548 30.6186 23.5 38C19.1452 30.6186 2.45161 38 2.45161 38C1.65323 38 1 37.2451 1 36.3224V5.95819C1 5.03552 1.65323 4.2806 2.45161 4.2806C2.45161 4.2806 20.5968 -3.10076 23.5 4.2806C26.4032 -3.10076 44.5484 4.2806 44.5484 4.2806C45.3468 4.2806 46 5.03552 46 5.95819V36.3224Z" stroke="black" stroke-width="2"/>
<path d="M28.5806 1.09321V23.2373L30.758 17.5335L32.9354 23.2373V1.932" stroke="black" stroke-width="2"/>
<path d="M23.5 4.36448V38" stroke="black" stroke-width="2"/>
</svg>
