<svg width="38" height="37" viewBox="0 0 38 37" fill="none" xmlns="http://www.w3.org/2000/svg">
<path d="M35.6471 16.178L35.6324 16.1731L35.6471 16.178ZM35.6471 16.178L35.6578 16.1815M35.6471 16.178L35.6578 16.1815M35.6578 16.1815L36.3138 15.2509L35.6537 16.1873L35.6578 16.1815ZM35.6578 16.1815L35.6649 16.1838L35.6578 16.1815ZM35.6201 16.1402L35.625 16.1471L35.6201 16.1402Z" fill="black" stroke="black" stroke-width="3"/>
<path d="M5.9375 10.4062C5.62256 10.4062 5.32051 10.2844 5.09781 10.0676C4.87511 9.85075 4.75 9.55666 4.75 9.25V4.625C4.75 4.31834 4.87511 4.02425 5.09781 3.80741C5.32051 3.59057 5.62256 3.46875 5.9375 3.46875H10.6875C11.0024 3.46875 11.3045 3.59057 11.5272 3.80741C11.7499 4.02425 11.875 4.31834 11.875 4.625C11.875 4.93166 11.7499 5.22575 11.5272 5.44259C11.3045 5.65943 11.0024 5.78125 10.6875 5.78125H7.125V9.25C7.125 9.55666 6.99989 9.85075 6.77719 10.0676C6.55449 10.2844 6.25244 10.4062 5.9375 10.4062Z" fill="black"/>
<path d="M29.6875 33.5312H23.75C23.4351 33.5312 23.133 33.4094 22.9103 33.1926C22.6876 32.9758 22.5625 32.6817 22.5625 32.375V24.2812H15.4375V32.375C15.4375 32.6817 15.3124 32.9758 15.0897 33.1926C14.867 33.4094 14.5649 33.5312 14.25 33.5312H8.3125C7.36767 33.5312 6.46153 33.1658 5.79343 32.5153C5.12533 31.8648 4.75 30.9825 4.75 30.0625V18.5C4.75 18.1933 4.87511 17.8992 5.09781 17.6824C5.32051 17.4656 5.62256 17.3438 5.9375 17.3438C6.25244 17.3438 6.55449 17.4656 6.77719 17.6824C6.99989 17.8992 7.125 18.1933 7.125 18.5V30.0625C7.125 30.3692 7.25011 30.6633 7.47281 30.8801C7.69551 31.0969 7.99756 31.2188 8.3125 31.2188H13.0625V23.125C13.0625 22.8183 13.1876 22.5242 13.4103 22.3074C13.633 22.0906 13.9351 21.9688 14.25 21.9688H23.75C24.0649 21.9688 24.367 22.0906 24.5897 22.3074C24.8124 22.5242 24.9375 22.8183 24.9375 23.125V31.2188H29.6875C30.0024 31.2188 30.3045 31.0969 30.5272 30.8801C30.7499 30.6633 30.875 30.3692 30.875 30.0625V18.5C30.875 18.1933 31.0001 17.8992 31.2228 17.6824C31.4455 17.4656 31.7476 17.3438 32.0625 17.3438C32.3774 17.3438 32.6795 17.4656 32.9022 17.6824C33.1249 17.8992 33.25 18.1933 33.25 18.5V30.0625C33.25 30.9825 32.8747 31.8648 32.2066 32.5153C31.5385 33.1658 30.6323 33.5312 29.6875 33.5312Z" fill="black"/>
</svg>
