<svg width="40" height="38" viewBox="0 0 40 38" fill="none" xmlns="http://www.w3.org/2000/svg">
<g clip-path="url(#clip0_4_20)">
<path d="M4 7.6H36C38.208 7.6 40 5.8995 40 3.8C40 1.7005 38.21 0 36 0H4C1.79 0 0 1.7005 0 3.8C0 5.8995 1.79 7.6 4 7.6ZM36 15.2H4C1.79 15.2 0 16.9005 0 19C0 21.0994 1.79 22.8 4 22.8H36C38.208 22.8 40 21.0994 40 19C40 16.9005 38.21 15.2 36 15.2ZM36 30.4H4C1.79 30.4 0 32.1005 0 34.2C0 36.2995 1.79 38 4 38H36C38.208 38 40 36.2995 40 34.2C40 32.1005 38.21 30.4 36 30.4Z" fill="black"/>
</g>
<defs>
<clipPath id="clip0_4_20">
<rect width="40" height="38" fill="white"/>
</clipPath>
</defs>
</svg>
