<svg width="48" height="48" viewBox="0 0 48 48" fill="none" xmlns="http://www.w3.org/2000/svg">
<g opacity="0.99">
<path d="M45.5 24C45.5 29.7542 43.2142 35.2727 39.1453 39.3416C35.0765 43.4104 29.558 45.6962 23.8038 45.6962C20.9546 45.6962 18.1333 45.135 15.501 44.0447C12.8687 42.9544 10.4769 41.3562 8.46222 39.3416C6.44754 37.3269 4.84941 34.9351 3.75907 32.3028C2.66873 29.6705 2.10754 26.8492 2.10754 24C2.10754 18.2458 4.39339 12.7273 8.46222 8.65845C12.5311 4.58962 18.0496 2.30377 23.8038 2.30377C29.558 2.30377 35.0765 4.58962 39.1453 8.65845C43.2142 12.7273 45.5 18.2458 45.5 24Z" stroke="black" stroke-width="2"/>
</g>
<path d="M24 7.5L15 27H24V39L33 19.5H24V7.5Z" fill="black"/>
</svg>
