<svg width="49" height="46" viewBox="0 0 49 46" fill="none" xmlns="http://www.w3.org/2000/svg">
<path d="M3.20584 22.1698C3.6189 22.1698 4.00956 22.2377 4.37111 22.3527L18.9069 10.6429L17.6071 9.59578C15.9434 8.25552 15.9434 6.0811 17.6071 4.74084L22.2449 1.0056C23.0769 0.335541 24.1684 0 25.2576 0C26.3492 0 27.4396 0.335541 28.2716 1.0056L34.5414 6.05646C36.6685 5.3911 38.9195 5.05644 41.1705 5.05644C43.7328 5.05644 46.2961 5.48906 48.6771 6.35431L42.1708 11.5947L42.3545 11.7869C44.9144 14.457 44.6208 18.263 41.67 20.6399C40.1011 21.9038 38.0172 22.5984 35.8003 22.5984C33.9576 22.5984 32.1393 22.0989 30.6804 21.1903L30.4428 21.0423L24.5544 25.7859C22.6028 22.3015 22.4284 18.3335 24.0173 14.7613L20.5424 11.963L6.07215 23.62C6.28278 23.9641 6.41148 24.3467 6.41148 24.7557C6.41148 25.0885 6.3272 25.4042 6.18575 25.6955L22.177 38.5749C22.2391 38.625 22.2706 38.6861 22.315 38.7427C24.2409 38.2441 26.2847 37.9605 28.4199 37.9605C33.1957 37.9605 37.561 39.3167 41.0195 41.5495H44.9929C46.5186 41.5495 47.7552 42.5457 47.7552 43.7748C47.7552 45.0039 46.5173 45.9991 44.9929 45.9991H12.7399C11.2142 45.9991 9.97886 45.0029 9.97886 43.7748C9.97886 42.5448 11.2155 41.5495 12.7399 41.5495H15.8216C17.0992 40.7249 18.5021 40.0217 20.002 39.46L4.6156 27.065C4.18852 27.2347 3.71465 27.3384 3.20692 27.3384C1.43562 27.3384 0 26.181 0 24.755C0.000183105 23.3291 1.43453 22.1698 3.20584 22.1698ZM35.8028 20.7126C37.3273 20.7126 38.8506 20.2461 40.0183 19.3064C42.1804 17.5646 42.3255 14.8379 40.5051 12.9387L36.1445 16.4505L32.114 19.6974C33.1972 20.3733 34.5005 20.7126 35.8028 20.7126ZM25.6741 13.428L26.7224 14.2724L26.2216 15.3959C25.2423 17.5976 25.041 19.9973 25.605 22.2752L28.578 19.8802L30.4581 18.3656L44.3271 7.19214C43.2964 7.02525 42.2422 6.94049 41.1717 6.94049C39.1827 6.94049 37.2372 7.23452 35.3909 7.81234L33.9671 8.25816L32.8883 7.38822L26.6171 2.33735C26.2545 2.04419 25.7724 1.88405 25.2587 1.88405C24.7463 1.88405 24.2631 2.04522 23.9003 2.33838L19.2625 6.0726C18.8998 6.36575 18.7009 6.75409 18.7009 7.1678C18.7009 7.58062 18.9009 7.96984 19.2625 8.26212L25.6741 13.428ZM16.6419 43.4347H15.8205H12.7389C12.5071 43.4347 12.3176 43.5874 12.3176 43.7749C12.3176 43.9616 12.5071 44.1143 12.7389 44.1143H44.9918C45.2246 44.1143 45.4141 43.9616 45.4141 43.7749C45.4141 43.5874 45.2246 43.4347 44.9918 43.4347H41.0184H40.1971L39.5559 43.021C36.3373 40.9447 32.4858 39.8466 28.4189 39.8466C24.3509 39.8466 20.4993 40.9446 17.2807 43.021L16.6419 43.4347Z" fill="black"/>
</svg>
